<?xml version="1.0" standalone="no"?>
<!DOCTYPE svg PUBLIC "-//W3C//DTD SVG 20010904//EN"
 "http://www.w3.org/TR/2001/REC-SVG-20010904/DTD/svg10.dtd">
<svg version="1.0" xmlns="http://www.w3.org/2000/svg"
 width="1024.000000pt" height="1024.000000pt" viewBox="0 0 1024.000000 1024.000000"
 preserveAspectRatio="xMidYMid meet">

<g transform="translate(0.000000,1024.000000) scale(0.100000,-0.100000)"
fill="#000000" stroke="none">
<path d="M1480 6385 l1 -1045 269 0 270 0 0 245 0 244 378 4 c207 3 387 5 399
6 20 1 22 7 25 74 l3 72 58 3 57 3 0 69 0 70 33 0 c17 0 49 3 70 6 l37 7 -2
456 -3 456 -31 0 c-62 0 -100 36 -84 80 4 11 4 25 -1 30 -4 6 -9 32 -10 58
l-3 47 -52 0 c-82 0 -84 2 -84 86 l0 74 -665 0 -665 0 0 -1045z m1020 455 l0
-60 44 0 c31 0 46 -5 50 -16 3 -9 6 -63 6 -120 l0 -104 -56 0 -56 0 4 -92 3
-93 -125 2 c-69 2 -176 6 -237 9 l-113 6 0 264 0 264 240 0 240 0 0 -60z"/>
<path d="M3280 6385 l0 -1045 270 0 270 0 0 1045 0 1045 -270 0 -270 0 0
-1045z"/>
<path d="M4072 7108 l3 -323 65 -1 65 -1 3 -57 3 -56 59 0 60 0 0 -61 0 -61
65 4 65 3 0 -150 c0 -82 3 -159 6 -171 5 -19 2 -20 -60 -16 l-66 4 0 -72 0
-72 -57 2 c-87 3 -83 7 -83 -60 l0 -60 -49 0 c-88 0 -81 26 -81 -316 l0 -304
259 0 c227 0 260 2 265 16 3 9 6 72 6 140 l0 124 69 0 69 0 -2 53 -1 52 63 3
62 3 0 54 c0 30 3 56 8 58 4 3 31 2 60 0 l52 -6 0 -58 0 -59 59 0 60 0 -2 -47
-2 -48 68 -5 68 -5 3 -80 c2 -44 4 -104 5 -132 l1 -53 265 0 265 0 -2 303 -3
302 -56 3 -56 3 -6 56 c-3 30 -8 57 -11 60 -3 3 -30 5 -61 4 l-55 -1 0 70 0
70 -64 0 -64 0 -4 58 c-2 31 0 105 6 165 l10 107 58 0 58 0 0 60 0 60 60 0 60
0 0 59 0 60 65 -6 65 -6 0 327 0 326 -264 0 -263 0 -6 -67 c-4 -38 -7 -100 -7
-140 l0 -71 -62 1 -63 2 -3 -73 -3 -73 -56 2 -57 3 -1 -50 -2 -49 -61 -1 -62
-2 0 54 0 54 -60 0 -60 0 0 64 0 63 -66 6 c-36 2 -67 7 -69 9 -2 2 -7 63 -11
136 l-7 132 -259 0 -258 0 2 -322z"/>
<path d="M5990 6385 l0 -1045 655 0 655 0 0 260 0 260 -315 1 c-173 1 -319 3
-325 4 -5 1 -41 3 -80 4 l-70 1 0 110 0 110 280 0 280 0 0 280 0 280 -285 0
-285 0 0 125 0 125 400 0 400 0 0 265 0 265 -655 0 -655 0 0 -1045z"/>
<path d="M7490 6390 l0 -1040 640 0 640 0 0 270 0 270 -375 0 -375 0 0 770 0
770 -265 0 -265 0 0 -1040z"/>
<path d="M1720 3942 l0 -1058 265 -3 265 -3 0 286 0 286 74 0 c40 0 87 -3 104
-6 26 -5 30 -9 23 -28 -5 -11 -6 -45 -4 -73 l6 -53 56 0 c31 0 80 -3 109 -6
l52 -7 0 -128 0 -129 56 0 57 0 -7 -70 -7 -70 258 2 257 3 0 55 c-1 30 -2 163
-3 295 -1 202 -4 237 -15 223 -11 -15 -30 -18 -130 -18 l-116 0 0 75 0 74 63
-2 62 -2 3 62 3 62 67 3 c57 3 67 6 66 21 -1 9 -2 235 -3 502 l-1 485 -65 0
-64 0 -3 68 -3 67 -62 3 -63 3 0 69 0 70 -650 0 -650 0 0 -1058z m908 508 l42
0 0 -63 0 -63 52 -3 c29 -1 53 -3 54 -4 1 -1 6 -44 11 -94 l9 -93 -66 0 -65 0
3 -71 4 -72 -129 7 c-70 4 -165 9 -209 12 l-82 6 -5 72 c-5 83 -1 352 6 363 3
4 79 7 169 6 89 -2 182 -3 206 -3z"/>
<path d="M3468 4133 c2 -518 7 -872 13 -877 5 -6 9 -36 9 -68 l0 -58 70 0 70
0 0 -60 0 -60 60 0 60 0 0 -65 0 -65 525 0 525 0 0 60 0 60 65 0 65 0 0 60 0
60 65 0 65 0 0 935 0 935 -237 1 c-131 1 -250 2 -265 3 l-28 2 0 -716 0 -716
-64 0 c-73 1 -76 -2 -76 -84 l0 -45 -108 1 c-59 1 -120 2 -136 3 l-28 1 7 67
7 66 -51 -6 c-29 -3 -57 -4 -64 -1 -9 3 -11 164 -8 719 l3 715 -273 0 -274 0
3 -867z"/>
<path d="M5512 4930 l4 -70 -61 0 -60 0 1 -53 c1 -76 0 -77 -73 -77 l-65 0 3
-340 c1 -187 4 -353 7 -370 4 -29 5 -30 58 -29 30 1 57 -1 60 -3 2 -3 5 -33 7
-67 l2 -62 63 7 62 6 0 -66 0 -66 175 0 175 0 0 -65 0 -65 130 0 130 0 0 -82
0 -83 -429 3 -428 3 -6 -68 c-4 -37 -7 -166 -7 -285 l0 -218 228 0 c125 0 406
-3 625 -7 l397 -6 0 66 0 66 60 -4 60 -4 0 64 0 65 70 0 69 0 3 58 c2 31 2
207 0 390 l-3 332 -69 0 -70 0 0 65 0 65 -65 0 c-56 0 -65 2 -63 18 1 9 0 36
0 59 l-2 43 -187 2 -188 3 -3 63 -3 62 -129 0 -130 0 0 70 0 70 458 0 457 0
-3 290 -3 290 -630 0 -631 0 4 -70z"/>
<path d="M6990 3941 l0 -1060 250 0 250 1 0 384 0 384 275 0 275 0 0 -385 0
-385 260 0 260 0 0 973 c0 534 3 1011 7 1060 l6 87 -267 0 -266 0 2 -381 3
-382 -125 7 c-69 3 -194 6 -277 6 l-153 0 0 375 0 375 -250 0 -250 0 0 -1059z"/>
</g>
</svg>
